<mxfile host="app.diagrams.net" agent="Mozilla/5.0 (Macintosh; Intel Mac OS X 10_15_7) AppleWebKit/605.1.15 (KHTML, like Gecko) Version/18.0.1 Safari/605.1.15" version="24.7.17">
  <diagram id="QJjx0-fPxzvcmYibJWj1" name="Page-1">
    <mxGraphModel dx="519" dy="297" grid="0" gridSize="10" guides="1" tooltips="1" connect="1" arrows="1" fold="1" page="1" pageScale="1" pageWidth="827" pageHeight="583" math="0" shadow="0">
      <root>
        <mxCell id="0" />
        <mxCell id="1" parent="0" />
        <mxCell id="E21WYbpWhwIhEI5-EvUI-31" value="" style="rounded=1;whiteSpace=wrap;html=1;dashed=1;fillColor=none;container=0;dashPattern=12 12;" vertex="1" parent="1">
          <mxGeometry x="33" y="23" width="487" height="167" as="geometry" />
        </mxCell>
        <mxCell id="E21WYbpWhwIhEI5-EvUI-160" value="1 x 1025" style="text;html=1;strokeColor=none;fillColor=none;align=center;verticalAlign=middle;whiteSpace=wrap;rounded=0;container=0;" vertex="1" parent="1">
          <mxGeometry x="574" y="394" width="99" height="30" as="geometry" />
        </mxCell>
        <mxCell id="E21WYbpWhwIhEI5-EvUI-158" value="1 x 512" style="text;html=1;strokeColor=none;fillColor=none;align=center;verticalAlign=middle;whiteSpace=wrap;rounded=0;container=0;" vertex="1" parent="1">
          <mxGeometry x="474" y="246" width="99" height="30" as="geometry" />
        </mxCell>
        <mxCell id="E21WYbpWhwIhEI5-EvUI-159" value="1 x 512" style="text;html=1;strokeColor=none;fillColor=none;align=center;verticalAlign=middle;whiteSpace=wrap;rounded=0;container=0;" vertex="1" parent="1">
          <mxGeometry x="473" y="378" width="99" height="30" as="geometry" />
        </mxCell>
        <mxCell id="E21WYbpWhwIhEI5-EvUI-153" value="" style="shape=cube;whiteSpace=wrap;html=1;boundedLbl=1;backgroundOutline=1;darkOpacity=0.05;darkOpacity2=0.1;size=3;direction=east;flipH=1;fillColor=#d0cee2;strokeColor=#56517e;container=0;rotation=-90;" vertex="1" parent="1">
          <mxGeometry x="617" y="392" width="8" height="8" as="geometry" />
        </mxCell>
        <mxCell id="4f-DMQIj-ya-iA7LCkDa-20" value="" style="shape=cube;whiteSpace=wrap;html=1;boundedLbl=1;backgroundOutline=1;darkOpacity=0.05;darkOpacity2=0.1;size=3;direction=east;flipH=1;container=0;dashed=1;" parent="1" vertex="1">
          <mxGeometry x="489" y="375" width="74" height="8" as="geometry" />
        </mxCell>
        <mxCell id="4f-DMQIj-ya-iA7LCkDa-21" value="" style="shape=cube;whiteSpace=wrap;html=1;boundedLbl=1;backgroundOutline=1;darkOpacity=0.05;darkOpacity2=0.1;size=3;direction=east;flipH=1;container=0;dashed=1;dashPattern=1 4;" parent="1" vertex="1">
          <mxGeometry x="488" y="270" width="74" height="8" as="geometry" />
        </mxCell>
        <mxCell id="4f-DMQIj-ya-iA7LCkDa-41" value="50 x 1536" style="text;html=1;strokeColor=none;fillColor=none;align=center;verticalAlign=middle;whiteSpace=wrap;rounded=0;container=0;" parent="1" vertex="1">
          <mxGeometry x="318" y="418" width="99" height="30" as="geometry" />
        </mxCell>
        <mxCell id="4f-DMQIj-ya-iA7LCkDa-42" value="n&lt;sub&gt;1&lt;/sub&gt; x 50 x 768" style="text;html=1;strokeColor=none;fillColor=none;align=center;verticalAlign=middle;whiteSpace=wrap;rounded=0;container=0;" parent="1" vertex="1">
          <mxGeometry x="241" y="217" width="99" height="30" as="geometry" />
        </mxCell>
        <mxCell id="E21WYbpWhwIhEI5-EvUI-28" style="edgeStyle=orthogonalEdgeStyle;rounded=0;orthogonalLoop=1;jettySize=auto;html=1;exitX=1;exitY=0.5;exitDx=0;exitDy=0;entryX=0;entryY=0.5;entryDx=0;entryDy=0;" edge="1" parent="1" source="E21WYbpWhwIhEI5-EvUI-3" target="E21WYbpWhwIhEI5-EvUI-4">
          <mxGeometry relative="1" as="geometry" />
        </mxCell>
        <mxCell id="E21WYbpWhwIhEI5-EvUI-3" value="DNABERT-2" style="rounded=1;whiteSpace=wrap;html=1;textDirection=vertical-rl;fontStyle=1;fillColor=#f5f5f5;fontColor=#333333;strokeColor=none;container=0;" vertex="1" parent="1">
          <mxGeometry x="184" y="47" width="50" height="120" as="geometry" />
        </mxCell>
        <mxCell id="E21WYbpWhwIhEI5-EvUI-4" value="cfDNABERT-2" style="rounded=1;whiteSpace=wrap;html=1;textDirection=vertical-rl;fontStyle=1;fillColor=#f5f5f5;fontColor=#333333;strokeColor=none;container=0;" vertex="1" parent="1">
          <mxGeometry x="290" y="47" width="50" height="120" as="geometry" />
        </mxCell>
        <mxCell id="E21WYbpWhwIhEI5-EvUI-29" value="" style="shape=cube;whiteSpace=wrap;html=1;boundedLbl=1;backgroundOutline=1;darkOpacity=0.05;darkOpacity2=0.1;size=7;direction=east;flipH=1;fillColor=#d5e8d4;strokeColor=#82b366;container=0;" vertex="1" parent="1">
          <mxGeometry x="353" y="98.44" width="30" height="20" as="geometry" />
        </mxCell>
        <mxCell id="E21WYbpWhwIhEI5-EvUI-30" value="Deeply Sequenced Healthy cfDNA" style="text;html=1;strokeColor=none;fillColor=none;align=left;verticalAlign=middle;whiteSpace=wrap;rounded=0;fontStyle=1;container=0;" vertex="1" parent="1">
          <mxGeometry x="393" y="94.56" width="138" height="23.88" as="geometry" />
        </mxCell>
        <mxCell id="E21WYbpWhwIhEI5-EvUI-34" value="cfDNABERT-2" style="rounded=1;whiteSpace=wrap;html=1;textDirection=vertical-rl;fontStyle=1;fillColor=#f5f5f5;fontColor=#333333;strokeColor=none;container=0;" vertex="1" parent="1">
          <mxGeometry x="158" y="275" width="50" height="120" as="geometry" />
        </mxCell>
        <mxCell id="E21WYbpWhwIhEI5-EvUI-87" value="" style="group" vertex="1" connectable="0" parent="1">
          <mxGeometry x="61" y="48" width="423" height="120" as="geometry" />
        </mxCell>
        <mxCell id="E21WYbpWhwIhEI5-EvUI-61" value="" style="rounded=1;whiteSpace=wrap;html=1;textDirection=vertical-rl;fontStyle=1;fillColor=none;fontColor=#333333;strokeColor=default;movable=1;resizable=1;rotatable=1;deletable=1;editable=1;locked=0;connectable=1;" vertex="1" parent="E21WYbpWhwIhEI5-EvUI-87">
          <mxGeometry width="99" height="120" as="geometry" />
        </mxCell>
        <mxCell id="E21WYbpWhwIhEI5-EvUI-62" value="" style="shape=cube;whiteSpace=wrap;html=1;boundedLbl=1;backgroundOutline=1;darkOpacity=0.05;darkOpacity2=0.1;size=3;direction=east;flipH=1;fillColor=#d5e8d4;strokeColor=#82b366;movable=1;resizable=1;rotatable=1;deletable=1;editable=1;locked=0;connectable=1;" vertex="1" parent="E21WYbpWhwIhEI5-EvUI-87">
          <mxGeometry x="45" y="50" width="38" height="8" as="geometry" />
        </mxCell>
        <mxCell id="E21WYbpWhwIhEI5-EvUI-63" value="" style="shape=cube;whiteSpace=wrap;html=1;boundedLbl=1;backgroundOutline=1;darkOpacity=0.05;darkOpacity2=0.1;size=3;direction=east;flipH=1;fillColor=#d5e8d4;strokeColor=#82b366;movable=1;resizable=1;rotatable=1;deletable=1;editable=1;locked=0;connectable=1;" vertex="1" parent="E21WYbpWhwIhEI5-EvUI-87">
          <mxGeometry x="9" y="39" width="38" height="8" as="geometry" />
        </mxCell>
        <mxCell id="E21WYbpWhwIhEI5-EvUI-64" value="" style="shape=cube;whiteSpace=wrap;html=1;boundedLbl=1;backgroundOutline=1;darkOpacity=0.05;darkOpacity2=0.1;size=3;direction=east;flipH=1;fillColor=#d5e8d4;strokeColor=#82b366;movable=1;resizable=1;rotatable=1;deletable=1;editable=1;locked=0;connectable=1;" vertex="1" parent="E21WYbpWhwIhEI5-EvUI-87">
          <mxGeometry x="39" y="28" width="38" height="8" as="geometry" />
        </mxCell>
        <mxCell id="E21WYbpWhwIhEI5-EvUI-65" value="" style="shape=cube;whiteSpace=wrap;html=1;boundedLbl=1;backgroundOutline=1;darkOpacity=0.05;darkOpacity2=0.1;size=3;direction=east;flipH=1;fillColor=#d5e8d4;strokeColor=#82b366;movable=1;resizable=1;rotatable=1;deletable=1;editable=1;locked=0;connectable=1;" vertex="1" parent="E21WYbpWhwIhEI5-EvUI-87">
          <mxGeometry x="17" y="88" width="38" height="8" as="geometry" />
        </mxCell>
        <mxCell id="E21WYbpWhwIhEI5-EvUI-66" value="" style="shape=cube;whiteSpace=wrap;html=1;boundedLbl=1;backgroundOutline=1;darkOpacity=0.05;darkOpacity2=0.1;size=3;direction=east;flipH=1;fillColor=#d5e8d4;strokeColor=#82b366;movable=1;resizable=1;rotatable=1;deletable=1;editable=1;locked=0;connectable=1;" vertex="1" parent="E21WYbpWhwIhEI5-EvUI-87">
          <mxGeometry x="4" y="57" width="38" height="8" as="geometry" />
        </mxCell>
        <mxCell id="E21WYbpWhwIhEI5-EvUI-67" value="" style="shape=cube;whiteSpace=wrap;html=1;boundedLbl=1;backgroundOutline=1;darkOpacity=0.05;darkOpacity2=0.1;size=3;direction=east;flipH=1;fillColor=#d5e8d4;strokeColor=#82b366;movable=1;resizable=1;rotatable=1;deletable=1;editable=1;locked=0;connectable=1;" vertex="1" parent="E21WYbpWhwIhEI5-EvUI-87">
          <mxGeometry x="55" y="99" width="38" height="8" as="geometry" />
        </mxCell>
        <mxCell id="E21WYbpWhwIhEI5-EvUI-68" value="" style="shape=cube;whiteSpace=wrap;html=1;boundedLbl=1;backgroundOutline=1;darkOpacity=0.05;darkOpacity2=0.1;size=3;direction=east;flipH=1;fillColor=#d5e8d4;strokeColor=#82b366;movable=1;resizable=1;rotatable=1;deletable=1;editable=1;locked=0;connectable=1;" vertex="1" parent="E21WYbpWhwIhEI5-EvUI-87">
          <mxGeometry x="4" y="100" width="38" height="8" as="geometry" />
        </mxCell>
        <mxCell id="E21WYbpWhwIhEI5-EvUI-69" value="" style="shape=cube;whiteSpace=wrap;html=1;boundedLbl=1;backgroundOutline=1;darkOpacity=0.05;darkOpacity2=0.1;size=3;direction=east;flipH=1;fillColor=#d5e8d4;strokeColor=#82b366;movable=1;resizable=1;rotatable=1;deletable=1;editable=1;locked=0;connectable=1;" vertex="1" parent="E21WYbpWhwIhEI5-EvUI-87">
          <mxGeometry x="56" y="64" width="38" height="8" as="geometry" />
        </mxCell>
        <mxCell id="E21WYbpWhwIhEI5-EvUI-70" value="" style="shape=cube;whiteSpace=wrap;html=1;boundedLbl=1;backgroundOutline=1;darkOpacity=0.05;darkOpacity2=0.1;size=3;direction=east;flipH=1;fillColor=#d5e8d4;strokeColor=#82b366;movable=1;resizable=1;rotatable=1;deletable=1;editable=1;locked=0;connectable=1;" vertex="1" parent="E21WYbpWhwIhEI5-EvUI-87">
          <mxGeometry x="57" y="79" width="38" height="8" as="geometry" />
        </mxCell>
        <mxCell id="E21WYbpWhwIhEI5-EvUI-71" value="" style="shape=cube;whiteSpace=wrap;html=1;boundedLbl=1;backgroundOutline=1;darkOpacity=0.05;darkOpacity2=0.1;size=3;direction=east;flipH=1;fillColor=#d5e8d4;strokeColor=#82b366;movable=1;resizable=1;rotatable=1;deletable=1;editable=1;locked=0;connectable=1;" vertex="1" parent="E21WYbpWhwIhEI5-EvUI-87">
          <mxGeometry x="15" y="75" width="38" height="8" as="geometry" />
        </mxCell>
        <mxCell id="E21WYbpWhwIhEI5-EvUI-72" value="" style="shape=cube;whiteSpace=wrap;html=1;boundedLbl=1;backgroundOutline=1;darkOpacity=0.05;darkOpacity2=0.1;size=3;direction=east;flipH=1;fillColor=#d5e8d4;strokeColor=#82b366;movable=1;resizable=1;rotatable=1;deletable=1;editable=1;locked=0;connectable=1;" vertex="1" parent="E21WYbpWhwIhEI5-EvUI-87">
          <mxGeometry x="49" y="10" width="38" height="8" as="geometry" />
        </mxCell>
        <mxCell id="E21WYbpWhwIhEI5-EvUI-73" value="" style="shape=cube;whiteSpace=wrap;html=1;boundedLbl=1;backgroundOutline=1;darkOpacity=0.05;darkOpacity2=0.1;size=3;direction=east;flipH=1;fillColor=#d5e8d4;strokeColor=#82b366;movable=1;resizable=1;rotatable=1;deletable=1;editable=1;locked=0;connectable=1;" vertex="1" parent="E21WYbpWhwIhEI5-EvUI-87">
          <mxGeometry x="8" y="16" width="38" height="8" as="geometry" />
        </mxCell>
        <mxCell id="E21WYbpWhwIhEI5-EvUI-88" value="" style="group" vertex="1" connectable="0" parent="1">
          <mxGeometry x="41" y="217" width="108" height="120" as="geometry" />
        </mxCell>
        <mxCell id="E21WYbpWhwIhEI5-EvUI-89" value="" style="rounded=1;whiteSpace=wrap;html=1;textDirection=vertical-rl;fontStyle=1;fillColor=none;fontColor=#333333;strokeColor=default;movable=1;resizable=1;rotatable=1;deletable=1;editable=1;locked=0;connectable=1;" vertex="1" parent="E21WYbpWhwIhEI5-EvUI-88">
          <mxGeometry width="99" height="120" as="geometry" />
        </mxCell>
        <mxCell id="E21WYbpWhwIhEI5-EvUI-90" value="" style="shape=cube;whiteSpace=wrap;html=1;boundedLbl=1;backgroundOutline=1;darkOpacity=0.05;darkOpacity2=0.1;size=3;direction=east;flipH=1;fillColor=#dae8fc;strokeColor=#6c8ebf;movable=1;resizable=1;rotatable=1;deletable=1;editable=1;locked=0;connectable=1;dashed=1;dashPattern=1 4;" vertex="1" parent="E21WYbpWhwIhEI5-EvUI-88">
          <mxGeometry x="45" y="50" width="38" height="8" as="geometry" />
        </mxCell>
        <mxCell id="E21WYbpWhwIhEI5-EvUI-91" value="" style="shape=cube;whiteSpace=wrap;html=1;boundedLbl=1;backgroundOutline=1;darkOpacity=0.05;darkOpacity2=0.1;size=3;direction=east;flipH=1;fillColor=#dae8fc;strokeColor=#6c8ebf;movable=1;resizable=1;rotatable=1;deletable=1;editable=1;locked=0;connectable=1;dashed=1;dashPattern=1 4;" vertex="1" parent="E21WYbpWhwIhEI5-EvUI-88">
          <mxGeometry x="9" y="39" width="38" height="8" as="geometry" />
        </mxCell>
        <mxCell id="E21WYbpWhwIhEI5-EvUI-92" value="" style="shape=cube;whiteSpace=wrap;html=1;boundedLbl=1;backgroundOutline=1;darkOpacity=0.05;darkOpacity2=0.1;size=3;direction=east;flipH=1;fillColor=#dae8fc;strokeColor=#6c8ebf;movable=1;resizable=1;rotatable=1;deletable=1;editable=1;locked=0;connectable=1;dashed=1;dashPattern=1 4;" vertex="1" parent="E21WYbpWhwIhEI5-EvUI-88">
          <mxGeometry x="39" y="28" width="38" height="8" as="geometry" />
        </mxCell>
        <mxCell id="E21WYbpWhwIhEI5-EvUI-93" value="" style="shape=cube;whiteSpace=wrap;html=1;boundedLbl=1;backgroundOutline=1;darkOpacity=0.05;darkOpacity2=0.1;size=3;direction=east;flipH=1;fillColor=#dae8fc;strokeColor=#6c8ebf;movable=1;resizable=1;rotatable=1;deletable=1;editable=1;locked=0;connectable=1;dashed=1;dashPattern=1 4;" vertex="1" parent="E21WYbpWhwIhEI5-EvUI-88">
          <mxGeometry x="17" y="88" width="38" height="8" as="geometry" />
        </mxCell>
        <mxCell id="E21WYbpWhwIhEI5-EvUI-94" value="" style="shape=cube;whiteSpace=wrap;html=1;boundedLbl=1;backgroundOutline=1;darkOpacity=0.05;darkOpacity2=0.1;size=3;direction=east;flipH=1;fillColor=#dae8fc;strokeColor=#6c8ebf;movable=1;resizable=1;rotatable=1;deletable=1;editable=1;locked=0;connectable=1;dashed=1;dashPattern=1 4;" vertex="1" parent="E21WYbpWhwIhEI5-EvUI-88">
          <mxGeometry x="4" y="57" width="38" height="8" as="geometry" />
        </mxCell>
        <mxCell id="E21WYbpWhwIhEI5-EvUI-95" value="" style="shape=cube;whiteSpace=wrap;html=1;boundedLbl=1;backgroundOutline=1;darkOpacity=0.05;darkOpacity2=0.1;size=3;direction=east;flipH=1;fillColor=#dae8fc;strokeColor=#6c8ebf;movable=1;resizable=1;rotatable=1;deletable=1;editable=1;locked=0;connectable=1;dashed=1;dashPattern=1 4;" vertex="1" parent="E21WYbpWhwIhEI5-EvUI-88">
          <mxGeometry x="55" y="99" width="38" height="8" as="geometry" />
        </mxCell>
        <mxCell id="E21WYbpWhwIhEI5-EvUI-96" value="" style="shape=cube;whiteSpace=wrap;html=1;boundedLbl=1;backgroundOutline=1;darkOpacity=0.05;darkOpacity2=0.1;size=3;direction=east;flipH=1;fillColor=#dae8fc;strokeColor=#6c8ebf;movable=1;resizable=1;rotatable=1;deletable=1;editable=1;locked=0;connectable=1;dashed=1;dashPattern=1 4;" vertex="1" parent="E21WYbpWhwIhEI5-EvUI-88">
          <mxGeometry x="4" y="100" width="38" height="8" as="geometry" />
        </mxCell>
        <mxCell id="E21WYbpWhwIhEI5-EvUI-97" value="" style="shape=cube;whiteSpace=wrap;html=1;boundedLbl=1;backgroundOutline=1;darkOpacity=0.05;darkOpacity2=0.1;size=3;direction=east;flipH=1;fillColor=#dae8fc;strokeColor=#6c8ebf;movable=1;resizable=1;rotatable=1;deletable=1;editable=1;locked=0;connectable=1;dashed=1;dashPattern=1 4;" vertex="1" parent="E21WYbpWhwIhEI5-EvUI-88">
          <mxGeometry x="56" y="64" width="38" height="8" as="geometry" />
        </mxCell>
        <mxCell id="E21WYbpWhwIhEI5-EvUI-98" value="" style="shape=cube;whiteSpace=wrap;html=1;boundedLbl=1;backgroundOutline=1;darkOpacity=0.05;darkOpacity2=0.1;size=3;direction=east;flipH=1;fillColor=#dae8fc;strokeColor=#6c8ebf;movable=1;resizable=1;rotatable=1;deletable=1;editable=1;locked=0;connectable=1;dashed=1;dashPattern=1 4;" vertex="1" parent="E21WYbpWhwIhEI5-EvUI-88">
          <mxGeometry x="57" y="79" width="38" height="8" as="geometry" />
        </mxCell>
        <mxCell id="E21WYbpWhwIhEI5-EvUI-99" value="" style="shape=cube;whiteSpace=wrap;html=1;boundedLbl=1;backgroundOutline=1;darkOpacity=0.05;darkOpacity2=0.1;size=3;direction=east;flipH=1;fillColor=#dae8fc;strokeColor=#6c8ebf;movable=1;resizable=1;rotatable=1;deletable=1;editable=1;locked=0;connectable=1;dashed=1;dashPattern=1 4;" vertex="1" parent="E21WYbpWhwIhEI5-EvUI-88">
          <mxGeometry x="15" y="75" width="38" height="8" as="geometry" />
        </mxCell>
        <mxCell id="E21WYbpWhwIhEI5-EvUI-100" value="" style="shape=cube;whiteSpace=wrap;html=1;boundedLbl=1;backgroundOutline=1;darkOpacity=0.05;darkOpacity2=0.1;size=3;direction=east;flipH=1;fillColor=#dae8fc;strokeColor=#6c8ebf;movable=1;resizable=1;rotatable=1;deletable=1;editable=1;locked=0;connectable=1;dashed=1;dashPattern=1 4;" vertex="1" parent="E21WYbpWhwIhEI5-EvUI-88">
          <mxGeometry x="49" y="10" width="38" height="8" as="geometry" />
        </mxCell>
        <mxCell id="E21WYbpWhwIhEI5-EvUI-101" value="" style="shape=cube;whiteSpace=wrap;html=1;boundedLbl=1;backgroundOutline=1;darkOpacity=0.05;darkOpacity2=0.1;size=3;direction=east;flipH=1;fillColor=#dae8fc;strokeColor=#6c8ebf;movable=1;resizable=1;rotatable=1;deletable=1;editable=1;locked=0;connectable=1;dashed=1;dashPattern=1 4;" vertex="1" parent="E21WYbpWhwIhEI5-EvUI-88">
          <mxGeometry x="8" y="16" width="38" height="8" as="geometry" />
        </mxCell>
        <mxCell id="E21WYbpWhwIhEI5-EvUI-117" style="edgeStyle=orthogonalEdgeStyle;rounded=0;orthogonalLoop=1;jettySize=auto;html=1;exitX=1;exitY=0.25;exitDx=0;exitDy=0;entryX=0;entryY=0.75;entryDx=0;entryDy=0;" edge="1" parent="1" source="E21WYbpWhwIhEI5-EvUI-103" target="E21WYbpWhwIhEI5-EvUI-34">
          <mxGeometry relative="1" as="geometry" />
        </mxCell>
        <mxCell id="E21WYbpWhwIhEI5-EvUI-116" style="edgeStyle=orthogonalEdgeStyle;rounded=0;orthogonalLoop=1;jettySize=auto;html=1;exitX=1;exitY=0.5;exitDx=0;exitDy=0;entryX=0;entryY=0.25;entryDx=0;entryDy=0;" edge="1" parent="1" source="E21WYbpWhwIhEI5-EvUI-89" target="E21WYbpWhwIhEI5-EvUI-34">
          <mxGeometry relative="1" as="geometry">
            <mxPoint x="148.25" y="332" as="targetPoint" />
          </mxGeometry>
        </mxCell>
        <mxCell id="E21WYbpWhwIhEI5-EvUI-118" value="" style="group" vertex="1" connectable="0" parent="1">
          <mxGeometry x="39" y="364" width="99" height="120" as="geometry" />
        </mxCell>
        <mxCell id="E21WYbpWhwIhEI5-EvUI-103" value="" style="rounded=1;whiteSpace=wrap;html=1;textDirection=vertical-rl;fontStyle=1;fillColor=none;fontColor=#333333;strokeColor=default;movable=1;resizable=1;rotatable=1;deletable=1;editable=1;locked=0;connectable=1;" vertex="1" parent="E21WYbpWhwIhEI5-EvUI-118">
          <mxGeometry width="99" height="120" as="geometry" />
        </mxCell>
        <mxCell id="E21WYbpWhwIhEI5-EvUI-104" value="" style="shape=cube;whiteSpace=wrap;html=1;boundedLbl=1;backgroundOutline=1;darkOpacity=0.05;darkOpacity2=0.1;size=3;direction=east;flipH=1;fillColor=#dae8fc;strokeColor=#6c8ebf;movable=1;resizable=1;rotatable=1;deletable=1;editable=1;locked=0;connectable=1;dashed=1;" vertex="1" parent="E21WYbpWhwIhEI5-EvUI-118">
          <mxGeometry x="9" y="44" width="38" height="8" as="geometry" />
        </mxCell>
        <mxCell id="E21WYbpWhwIhEI5-EvUI-105" value="" style="shape=cube;whiteSpace=wrap;html=1;boundedLbl=1;backgroundOutline=1;darkOpacity=0.05;darkOpacity2=0.1;size=3;direction=east;flipH=1;fillColor=#dae8fc;strokeColor=#6c8ebf;movable=1;resizable=1;rotatable=1;deletable=1;editable=1;locked=0;connectable=1;dashed=1;" vertex="1" parent="E21WYbpWhwIhEI5-EvUI-118">
          <mxGeometry x="46" y="31" width="38" height="8" as="geometry" />
        </mxCell>
        <mxCell id="E21WYbpWhwIhEI5-EvUI-106" value="" style="shape=cube;whiteSpace=wrap;html=1;boundedLbl=1;backgroundOutline=1;darkOpacity=0.05;darkOpacity2=0.1;size=3;direction=east;flipH=1;fillColor=#dae8fc;strokeColor=#6c8ebf;movable=1;resizable=1;rotatable=1;deletable=1;editable=1;locked=0;connectable=1;dashed=1;" vertex="1" parent="E21WYbpWhwIhEI5-EvUI-118">
          <mxGeometry x="10" y="21" width="38" height="8" as="geometry" />
        </mxCell>
        <mxCell id="E21WYbpWhwIhEI5-EvUI-107" value="" style="shape=cube;whiteSpace=wrap;html=1;boundedLbl=1;backgroundOutline=1;darkOpacity=0.05;darkOpacity2=0.1;size=3;direction=east;flipH=1;fillColor=#dae8fc;strokeColor=#6c8ebf;movable=1;resizable=1;rotatable=1;deletable=1;editable=1;locked=0;connectable=1;dashed=1;" vertex="1" parent="E21WYbpWhwIhEI5-EvUI-118">
          <mxGeometry x="8" y="94" width="38" height="8" as="geometry" />
        </mxCell>
        <mxCell id="E21WYbpWhwIhEI5-EvUI-108" value="" style="shape=cube;whiteSpace=wrap;html=1;boundedLbl=1;backgroundOutline=1;darkOpacity=0.05;darkOpacity2=0.1;size=3;direction=east;flipH=1;fillColor=#dae8fc;strokeColor=#6c8ebf;movable=1;resizable=1;rotatable=1;deletable=1;editable=1;locked=0;connectable=1;dashed=1;" vertex="1" parent="E21WYbpWhwIhEI5-EvUI-118">
          <mxGeometry x="55" y="47" width="38" height="8" as="geometry" />
        </mxCell>
        <mxCell id="E21WYbpWhwIhEI5-EvUI-109" value="" style="shape=cube;whiteSpace=wrap;html=1;boundedLbl=1;backgroundOutline=1;darkOpacity=0.05;darkOpacity2=0.1;size=3;direction=east;flipH=1;fillColor=#dae8fc;strokeColor=#6c8ebf;movable=1;resizable=1;rotatable=1;deletable=1;editable=1;locked=0;connectable=1;dashed=1;" vertex="1" parent="E21WYbpWhwIhEI5-EvUI-118">
          <mxGeometry x="45" y="105" width="38" height="8" as="geometry" />
        </mxCell>
        <mxCell id="E21WYbpWhwIhEI5-EvUI-110" value="" style="shape=cube;whiteSpace=wrap;html=1;boundedLbl=1;backgroundOutline=1;darkOpacity=0.05;darkOpacity2=0.1;size=3;direction=east;flipH=1;fillColor=#dae8fc;strokeColor=#6c8ebf;movable=1;resizable=1;rotatable=1;deletable=1;editable=1;locked=0;connectable=1;dashed=1;" vertex="1" parent="E21WYbpWhwIhEI5-EvUI-118">
          <mxGeometry x="51" y="94" width="38" height="8" as="geometry" />
        </mxCell>
        <mxCell id="E21WYbpWhwIhEI5-EvUI-111" value="" style="shape=cube;whiteSpace=wrap;html=1;boundedLbl=1;backgroundOutline=1;darkOpacity=0.05;darkOpacity2=0.1;size=3;direction=east;flipH=1;fillColor=#dae8fc;strokeColor=#6c8ebf;movable=1;resizable=1;rotatable=1;deletable=1;editable=1;locked=0;connectable=1;dashed=1;" vertex="1" parent="E21WYbpWhwIhEI5-EvUI-118">
          <mxGeometry x="21" y="62" width="38" height="8" as="geometry" />
        </mxCell>
        <mxCell id="E21WYbpWhwIhEI5-EvUI-112" value="" style="shape=cube;whiteSpace=wrap;html=1;boundedLbl=1;backgroundOutline=1;darkOpacity=0.05;darkOpacity2=0.1;size=3;direction=east;flipH=1;fillColor=#dae8fc;strokeColor=#6c8ebf;movable=1;resizable=1;rotatable=1;deletable=1;editable=1;locked=0;connectable=1;dashed=1;" vertex="1" parent="E21WYbpWhwIhEI5-EvUI-118">
          <mxGeometry x="57" y="79" width="38" height="8" as="geometry" />
        </mxCell>
        <mxCell id="E21WYbpWhwIhEI5-EvUI-113" value="" style="shape=cube;whiteSpace=wrap;html=1;boundedLbl=1;backgroundOutline=1;darkOpacity=0.05;darkOpacity2=0.1;size=3;direction=east;flipH=1;fillColor=#dae8fc;strokeColor=#6c8ebf;movable=1;resizable=1;rotatable=1;deletable=1;editable=1;locked=0;connectable=1;dashed=1;" vertex="1" parent="E21WYbpWhwIhEI5-EvUI-118">
          <mxGeometry x="14" y="75" width="38" height="8" as="geometry" />
        </mxCell>
        <mxCell id="E21WYbpWhwIhEI5-EvUI-114" value="" style="shape=cube;whiteSpace=wrap;html=1;boundedLbl=1;backgroundOutline=1;darkOpacity=0.05;darkOpacity2=0.1;size=3;direction=east;flipH=1;fillColor=#dae8fc;strokeColor=#6c8ebf;movable=1;resizable=1;rotatable=1;deletable=1;editable=1;locked=0;connectable=1;dashed=1;" vertex="1" parent="E21WYbpWhwIhEI5-EvUI-118">
          <mxGeometry x="32" y="6" width="38" height="8" as="geometry" />
        </mxCell>
        <mxCell id="E21WYbpWhwIhEI5-EvUI-115" value="" style="shape=cube;whiteSpace=wrap;html=1;boundedLbl=1;backgroundOutline=1;darkOpacity=0.05;darkOpacity2=0.1;size=3;direction=east;flipH=1;fillColor=#dae8fc;strokeColor=#6c8ebf;movable=1;resizable=1;rotatable=1;deletable=1;editable=1;locked=0;connectable=1;dashed=1;" vertex="1" parent="E21WYbpWhwIhEI5-EvUI-118">
          <mxGeometry x="53" y="19" width="38" height="8" as="geometry" />
        </mxCell>
        <mxCell id="E21WYbpWhwIhEI5-EvUI-119" value="" style="shape=cube;whiteSpace=wrap;html=1;boundedLbl=1;backgroundOutline=1;darkOpacity=0.05;darkOpacity2=0.1;size=22;direction=east;flipH=1;fillColor=#f8cecc;strokeColor=#b85450;container=0;dashed=1;dashPattern=1 4;" vertex="1" parent="1">
          <mxGeometry x="242" y="243" width="70" height="70" as="geometry" />
        </mxCell>
        <mxCell id="E21WYbpWhwIhEI5-EvUI-120" style="edgeStyle=orthogonalEdgeStyle;rounded=0;orthogonalLoop=1;jettySize=auto;html=1;exitX=1;exitY=0.25;exitDx=0;exitDy=0;" edge="1" parent="1" source="E21WYbpWhwIhEI5-EvUI-34" target="E21WYbpWhwIhEI5-EvUI-119">
          <mxGeometry relative="1" as="geometry" />
        </mxCell>
        <mxCell id="E21WYbpWhwIhEI5-EvUI-122" value="" style="shape=cube;whiteSpace=wrap;html=1;boundedLbl=1;backgroundOutline=1;darkOpacity=0.05;darkOpacity2=0.1;size=22;direction=east;flipH=1;fillColor=#f8cecc;strokeColor=#b85450;container=0;dashed=1;" vertex="1" parent="1">
          <mxGeometry x="242" y="347" width="70" height="70" as="geometry" />
        </mxCell>
        <mxCell id="E21WYbpWhwIhEI5-EvUI-123" style="edgeStyle=orthogonalEdgeStyle;rounded=0;orthogonalLoop=1;jettySize=auto;html=1;exitX=1;exitY=0.75;exitDx=0;exitDy=0;entryX=0;entryY=0;entryDx=70;entryDy=46;entryPerimeter=0;" edge="1" parent="1" source="E21WYbpWhwIhEI5-EvUI-34" target="E21WYbpWhwIhEI5-EvUI-122">
          <mxGeometry relative="1" as="geometry">
            <mxPoint x="218" y="315" as="sourcePoint" />
            <mxPoint x="228" y="450" as="targetPoint" />
          </mxGeometry>
        </mxCell>
        <mxCell id="E21WYbpWhwIhEI5-EvUI-124" value="n&lt;sub&gt;1&lt;/sub&gt;&amp;nbsp;fragments" style="text;html=1;strokeColor=none;fillColor=none;align=center;verticalAlign=middle;whiteSpace=wrap;rounded=0;container=0;" vertex="1" parent="1">
          <mxGeometry x="43" y="193" width="99" height="30" as="geometry" />
        </mxCell>
        <mxCell id="E21WYbpWhwIhEI5-EvUI-125" value="n&lt;font size=&quot;1&quot;&gt;&lt;sub&gt;2&lt;/sub&gt;&lt;/font&gt;&amp;nbsp;fragments" style="text;html=1;strokeColor=none;fillColor=none;align=center;verticalAlign=middle;whiteSpace=wrap;rounded=0;container=0;" vertex="1" parent="1">
          <mxGeometry x="41" y="340" width="99" height="30" as="geometry" />
        </mxCell>
        <mxCell id="E21WYbpWhwIhEI5-EvUI-126" value="Anchor 2" style="text;html=1;strokeColor=none;fillColor=none;align=center;verticalAlign=middle;whiteSpace=wrap;rounded=0;container=0;textDirection=vertical-rl;rotation=-180;" vertex="1" parent="1">
          <mxGeometry x="19" y="377" width="25" height="93" as="geometry" />
        </mxCell>
        <mxCell id="E21WYbpWhwIhEI5-EvUI-127" value="Anchor 1" style="text;html=1;strokeColor=none;fillColor=none;align=center;verticalAlign=middle;whiteSpace=wrap;rounded=0;container=0;textDirection=vertical-rl;rotation=-180;" vertex="1" parent="1">
          <mxGeometry x="19" y="227" width="25" height="93" as="geometry" />
        </mxCell>
        <mxCell id="E21WYbpWhwIhEI5-EvUI-128" value="n&lt;font size=&quot;1&quot;&gt;&lt;sub&gt;2&lt;/sub&gt;&lt;/font&gt;&amp;nbsp;x 50 x 768" style="text;html=1;strokeColor=none;fillColor=none;align=center;verticalAlign=middle;whiteSpace=wrap;rounded=0;container=0;" vertex="1" parent="1">
          <mxGeometry x="224" y="421" width="99" height="30" as="geometry" />
        </mxCell>
        <mxCell id="E21WYbpWhwIhEI5-EvUI-133" value="" style="endArrow=classic;html=1;rounded=0;" edge="1" parent="1">
          <mxGeometry width="50" height="50" relative="1" as="geometry">
            <mxPoint x="301" y="277" as="sourcePoint" />
            <mxPoint x="341" y="277" as="targetPoint" />
          </mxGeometry>
        </mxCell>
        <mxCell id="E21WYbpWhwIhEI5-EvUI-135" value="" style="shape=cube;whiteSpace=wrap;html=1;boundedLbl=1;backgroundOutline=1;darkOpacity=0.05;darkOpacity2=0.1;size=22;direction=east;flipH=1;fillColor=#ffe6cc;strokeColor=#d79b00;container=0;dashed=1;dashPattern=1 4;" vertex="1" parent="1">
          <mxGeometry x="359" y="230" width="26" height="70" as="geometry" />
        </mxCell>
        <mxCell id="E21WYbpWhwIhEI5-EvUI-136" value="" style="shape=cube;whiteSpace=wrap;html=1;boundedLbl=1;backgroundOutline=1;darkOpacity=0.05;darkOpacity2=0.1;size=22;direction=east;flipH=1;fillColor=#fff2cc;strokeColor=#d6b656;container=0;dashed=1;dashPattern=1 4;" vertex="1" parent="1">
          <mxGeometry x="338" y="251" width="26" height="70" as="geometry" />
        </mxCell>
        <mxCell id="E21WYbpWhwIhEI5-EvUI-137" value="" style="endArrow=classic;html=1;rounded=0;" edge="1" parent="1">
          <mxGeometry width="50" height="50" relative="1" as="geometry">
            <mxPoint x="302" y="382" as="sourcePoint" />
            <mxPoint x="342" y="382" as="targetPoint" />
          </mxGeometry>
        </mxCell>
        <mxCell id="E21WYbpWhwIhEI5-EvUI-138" value="" style="shape=cube;whiteSpace=wrap;html=1;boundedLbl=1;backgroundOutline=1;darkOpacity=0.05;darkOpacity2=0.1;size=22;direction=east;flipH=1;fillColor=#ffe6cc;strokeColor=#d79b00;container=0;dashed=1;" vertex="1" parent="1">
          <mxGeometry x="361" y="333" width="26" height="70" as="geometry" />
        </mxCell>
        <mxCell id="E21WYbpWhwIhEI5-EvUI-139" value="" style="shape=cube;whiteSpace=wrap;html=1;boundedLbl=1;backgroundOutline=1;darkOpacity=0.05;darkOpacity2=0.1;size=22;direction=east;flipH=1;fillColor=#fff2cc;strokeColor=#d6b656;container=0;dashed=1;" vertex="1" parent="1">
          <mxGeometry x="340" y="354" width="26" height="70" as="geometry" />
        </mxCell>
        <mxCell id="E21WYbpWhwIhEI5-EvUI-141" value="50 x 1536" style="text;html=1;strokeColor=none;fillColor=none;align=center;verticalAlign=middle;whiteSpace=wrap;rounded=0;container=0;" vertex="1" parent="1">
          <mxGeometry x="332" y="208" width="99" height="30" as="geometry" />
        </mxCell>
        <mxCell id="E21WYbpWhwIhEI5-EvUI-142" value="LSTM" style="rounded=1;whiteSpace=wrap;html=1;textDirection=vertical-rl;fontStyle=1;fillColor=#f5f5f5;fontColor=#333333;strokeColor=none;container=0;" vertex="1" parent="1">
          <mxGeometry x="421" y="247" width="50" height="57" as="geometry" />
        </mxCell>
        <mxCell id="E21WYbpWhwIhEI5-EvUI-143" value="LSTM" style="rounded=1;whiteSpace=wrap;html=1;textDirection=vertical-rl;fontStyle=1;fillColor=#f5f5f5;fontColor=#333333;strokeColor=none;container=0;" vertex="1" parent="1">
          <mxGeometry x="421" y="352" width="50" height="57" as="geometry" />
        </mxCell>
        <mxCell id="E21WYbpWhwIhEI5-EvUI-144" value="" style="endArrow=classic;html=1;rounded=0;entryX=0;entryY=0.5;entryDx=0;entryDy=0;" edge="1" parent="1" target="E21WYbpWhwIhEI5-EvUI-142">
          <mxGeometry width="50" height="50" relative="1" as="geometry">
            <mxPoint x="375" y="276" as="sourcePoint" />
            <mxPoint x="415" y="276" as="targetPoint" />
          </mxGeometry>
        </mxCell>
        <mxCell id="E21WYbpWhwIhEI5-EvUI-145" value="" style="endArrow=classic;html=1;rounded=0;entryX=0;entryY=0.5;entryDx=0;entryDy=0;" edge="1" parent="1" target="E21WYbpWhwIhEI5-EvUI-143">
          <mxGeometry width="50" height="50" relative="1" as="geometry">
            <mxPoint x="376" y="381" as="sourcePoint" />
            <mxPoint x="410" y="381" as="targetPoint" />
          </mxGeometry>
        </mxCell>
        <mxCell id="E21WYbpWhwIhEI5-EvUI-147" value="" style="endArrow=classic;html=1;rounded=0;exitX=1;exitY=0.5;exitDx=0;exitDy=0;entryX=0;entryY=0;entryDx=74;entryDy=5.5;entryPerimeter=0;" edge="1" parent="1" source="E21WYbpWhwIhEI5-EvUI-143" target="4f-DMQIj-ya-iA7LCkDa-20">
          <mxGeometry width="50" height="50" relative="1" as="geometry">
            <mxPoint x="460" y="459" as="sourcePoint" />
            <mxPoint x="435" y="431" as="targetPoint" />
          </mxGeometry>
        </mxCell>
        <mxCell id="E21WYbpWhwIhEI5-EvUI-148" value="" style="endArrow=classic;html=1;rounded=0;exitX=1;exitY=0.5;exitDx=0;exitDy=0;entryX=0;entryY=0;entryDx=74;entryDy=5.5;entryPerimeter=0;" edge="1" parent="1" source="E21WYbpWhwIhEI5-EvUI-142" target="4f-DMQIj-ya-iA7LCkDa-21">
          <mxGeometry width="50" height="50" relative="1" as="geometry">
            <mxPoint x="481" y="391" as="sourcePoint" />
            <mxPoint x="499" y="391" as="targetPoint" />
          </mxGeometry>
        </mxCell>
        <mxCell id="E21WYbpWhwIhEI5-EvUI-151" value="" style="shape=cube;whiteSpace=wrap;html=1;boundedLbl=1;backgroundOutline=1;darkOpacity=0.05;darkOpacity2=0.1;size=3;direction=east;flipH=1;container=0;rotation=-90;" vertex="1" parent="1">
          <mxGeometry x="584" y="354" width="74" height="8" as="geometry" />
        </mxCell>
        <mxCell id="E21WYbpWhwIhEI5-EvUI-152" value="" style="shape=cube;whiteSpace=wrap;html=1;boundedLbl=1;backgroundOutline=1;darkOpacity=0.05;darkOpacity2=0.1;size=3;direction=east;flipH=1;container=0;rotation=-90;" vertex="1" parent="1">
          <mxGeometry x="584" y="283" width="74" height="8" as="geometry" />
        </mxCell>
        <mxCell id="E21WYbpWhwIhEI5-EvUI-154" value="" style="endArrow=diamondThin;html=1;rounded=0;exitX=0;exitY=0;exitDx=0;exitDy=2.5;exitPerimeter=0;entryX=0;entryY=0;entryDx=35.5;entryDy=0;entryPerimeter=0;strokeWidth=1;endFill=0;" edge="1" parent="1" source="4f-DMQIj-ya-iA7LCkDa-21" target="E21WYbpWhwIhEI5-EvUI-152">
          <mxGeometry width="50" height="50" relative="1" as="geometry">
            <mxPoint x="470" y="349" as="sourcePoint" />
            <mxPoint x="520" y="299" as="targetPoint" />
          </mxGeometry>
        </mxCell>
        <mxCell id="E21WYbpWhwIhEI5-EvUI-155" value="" style="endArrow=diamondThin;html=1;rounded=0;exitX=0;exitY=0;exitDx=0;exitDy=2.5;exitPerimeter=0;entryX=0;entryY=0;entryDx=35.5;entryDy=0;entryPerimeter=0;endFill=0;" edge="1" parent="1" source="4f-DMQIj-ya-iA7LCkDa-20" target="E21WYbpWhwIhEI5-EvUI-152">
          <mxGeometry width="50" height="50" relative="1" as="geometry">
            <mxPoint x="572" y="283" as="sourcePoint" />
            <mxPoint x="627" y="296" as="targetPoint" />
          </mxGeometry>
        </mxCell>
        <mxCell id="E21WYbpWhwIhEI5-EvUI-156" value="" style="endArrow=ERmandOne;html=1;rounded=0;exitX=0;exitY=0;exitDx=0;exitDy=2.5;exitPerimeter=0;entryX=0;entryY=0;entryDx=35.5;entryDy=0;entryPerimeter=0;endFill=0;" edge="1" parent="1" source="4f-DMQIj-ya-iA7LCkDa-21" target="E21WYbpWhwIhEI5-EvUI-151">
          <mxGeometry width="50" height="50" relative="1" as="geometry">
            <mxPoint x="573" y="388" as="sourcePoint" />
            <mxPoint x="627" y="296" as="targetPoint" />
          </mxGeometry>
        </mxCell>
        <mxCell id="E21WYbpWhwIhEI5-EvUI-157" value="" style="endArrow=ERmandOne;html=1;rounded=0;entryX=0;entryY=0;entryDx=35.5;entryDy=0;entryPerimeter=0;endFill=0;" edge="1" parent="1" target="E21WYbpWhwIhEI5-EvUI-151">
          <mxGeometry width="50" height="50" relative="1" as="geometry">
            <mxPoint x="563" y="377" as="sourcePoint" />
            <mxPoint x="627" y="367" as="targetPoint" />
          </mxGeometry>
        </mxCell>
        <mxCell id="E21WYbpWhwIhEI5-EvUI-161" value="" style="endArrow=classic;html=1;rounded=0;entryX=0;entryY=0.5;entryDx=0;entryDy=0;" edge="1" parent="1">
          <mxGeometry width="50" height="50" relative="1" as="geometry">
            <mxPoint x="633" y="326" as="sourcePoint" />
            <mxPoint x="679" y="326" as="targetPoint" />
          </mxGeometry>
        </mxCell>
        <mxCell id="E21WYbpWhwIhEI5-EvUI-162" value="1 x 1025" style="text;html=1;strokeColor=none;fillColor=none;align=center;verticalAlign=middle;whiteSpace=wrap;rounded=0;container=0;" vertex="1" parent="1">
          <mxGeometry x="572" y="225" width="99" height="30" as="geometry" />
        </mxCell>
        <mxCell id="E21WYbpWhwIhEI5-EvUI-163" value="" style="shape=cube;whiteSpace=wrap;html=1;boundedLbl=1;backgroundOutline=1;darkOpacity=0.05;darkOpacity2=0.1;size=3;direction=east;flipH=1;container=0;rotation=-90;" vertex="1" parent="1">
          <mxGeometry x="670.5" y="320" width="41" height="8" as="geometry" />
        </mxCell>
        <mxCell id="E21WYbpWhwIhEI5-EvUI-164" value="1 x 128" style="text;html=1;strokeColor=none;fillColor=none;align=center;verticalAlign=middle;whiteSpace=wrap;rounded=0;container=0;" vertex="1" parent="1">
          <mxGeometry x="641" y="278" width="99" height="30" as="geometry" />
        </mxCell>
        <mxCell id="E21WYbpWhwIhEI5-EvUI-165" value="" style="shape=cube;whiteSpace=wrap;html=1;boundedLbl=1;backgroundOutline=1;darkOpacity=0.05;darkOpacity2=0.1;size=3;direction=east;flipH=1;container=0;rotation=-90;" vertex="1" parent="1">
          <mxGeometry x="713" y="321" width="24.5" height="8" as="geometry" />
        </mxCell>
        <mxCell id="E21WYbpWhwIhEI5-EvUI-166" value="" style="endArrow=classic;html=1;rounded=0;" edge="1" parent="1">
          <mxGeometry width="50" height="50" relative="1" as="geometry">
            <mxPoint x="701" y="326" as="sourcePoint" />
            <mxPoint x="716" y="326" as="targetPoint" />
          </mxGeometry>
        </mxCell>
        <mxCell id="E21WYbpWhwIhEI5-EvUI-168" value="" style="endArrow=classic;html=1;rounded=0;" edge="1" parent="1">
          <mxGeometry width="50" height="50" relative="1" as="geometry">
            <mxPoint x="738" y="327" as="sourcePoint" />
            <mxPoint x="753" y="327" as="targetPoint" />
          </mxGeometry>
        </mxCell>
        <mxCell id="E21WYbpWhwIhEI5-EvUI-169" value="1 x 64" style="text;html=1;strokeColor=none;fillColor=none;align=center;verticalAlign=middle;whiteSpace=wrap;rounded=0;container=0;" vertex="1" parent="1">
          <mxGeometry x="677" y="331" width="99" height="30" as="geometry" />
        </mxCell>
        <mxCell id="E21WYbpWhwIhEI5-EvUI-170" value="" style="shape=cube;whiteSpace=wrap;html=1;boundedLbl=1;backgroundOutline=1;darkOpacity=0.05;darkOpacity2=0.1;size=3;direction=east;flipH=1;container=0;rotation=-90;" vertex="1" parent="1">
          <mxGeometry x="759" y="323" width="8" height="8" as="geometry" />
        </mxCell>
        <mxCell id="E21WYbpWhwIhEI5-EvUI-171" value="1 x 1" style="text;html=1;strokeColor=none;fillColor=none;align=center;verticalAlign=middle;whiteSpace=wrap;rounded=0;container=0;" vertex="1" parent="1">
          <mxGeometry x="714" y="299" width="99" height="30" as="geometry" />
        </mxCell>
        <mxCell id="4f-DMQIj-ya-iA7LCkDa-23" value="" style="shape=cube;whiteSpace=wrap;html=1;boundedLbl=1;backgroundOutline=1;darkOpacity=0.05;darkOpacity2=0.1;size=7;direction=east;flipH=1;fillColor=#dae8fc;strokeColor=#6c8ebf;container=0;" parent="1" vertex="1">
          <mxGeometry x="489" y="471.37697771587744" width="25.81769436997319" height="16.16991643454039" as="geometry" />
        </mxCell>
        <mxCell id="4f-DMQIj-ya-iA7LCkDa-24" value="" style="shape=cube;whiteSpace=wrap;html=1;boundedLbl=1;backgroundOutline=1;darkOpacity=0.05;darkOpacity2=0.1;size=7;direction=east;flipH=1;fillColor=#f8cecc;strokeColor=#b85450;container=0;" parent="1" vertex="1">
          <mxGeometry x="489" y="495.63185236768805" width="25.81769436997319" height="16.16991643454039" as="geometry" />
        </mxCell>
        <mxCell id="4f-DMQIj-ya-iA7LCkDa-26" value="" style="shape=cube;whiteSpace=wrap;html=1;boundedLbl=1;backgroundOutline=1;darkOpacity=0.05;darkOpacity2=0.1;size=7;direction=east;flipH=1;fillColor=#fff2cc;strokeColor=#d6b656;container=0;" parent="1" vertex="1">
          <mxGeometry x="489" y="519.8867270194986" width="25.81769436997319" height="16.16991643454039" as="geometry" />
        </mxCell>
        <mxCell id="4f-DMQIj-ya-iA7LCkDa-50" value="cfDNA fragments mapped to anchor" style="text;html=1;strokeColor=none;fillColor=none;align=left;verticalAlign=middle;whiteSpace=wrap;rounded=0;fontStyle=1;container=0;fontSize=9;" parent="1" vertex="1">
          <mxGeometry x="524.28418230563" y="469" width="118.76139410187668" height="19.306880222841226" as="geometry" />
        </mxCell>
        <mxCell id="4f-DMQIj-ya-iA7LCkDa-51" value="cfDNABERT-2 embeddings" style="text;html=1;strokeColor=none;fillColor=none;align=left;verticalAlign=middle;whiteSpace=wrap;rounded=0;fontStyle=1;container=0;fontSize=9;" parent="1" vertex="1">
          <mxGeometry x="524.28418230563" y="493.2548746518106" width="118.76139410187668" height="19.306880222841226" as="geometry" />
        </mxCell>
        <mxCell id="4f-DMQIj-ya-iA7LCkDa-52" value="mean of embeddings" style="text;html=1;strokeColor=none;fillColor=none;align=left;verticalAlign=middle;whiteSpace=wrap;rounded=0;fontStyle=1;container=0;fontSize=9;" parent="1" vertex="1">
          <mxGeometry x="524.28418230563" y="518.3667548746517" width="118.76139410187668" height="19.306880222841226" as="geometry" />
        </mxCell>
        <mxCell id="E21WYbpWhwIhEI5-EvUI-174" value="" style="shape=cube;whiteSpace=wrap;html=1;boundedLbl=1;backgroundOutline=1;darkOpacity=0.05;darkOpacity2=0.1;size=7;direction=east;flipH=1;fillColor=#ffe6cc;strokeColor=#d79b00;container=0;" vertex="1" parent="1">
          <mxGeometry x="655.9544235924933" y="470.5684818941504" width="25.81769436997319" height="16.16991643454039" as="geometry" />
        </mxCell>
        <mxCell id="E21WYbpWhwIhEI5-EvUI-175" value="standard deviation of embeddings" style="text;html=1;strokeColor=none;fillColor=none;align=left;verticalAlign=middle;whiteSpace=wrap;rounded=0;fontStyle=1;container=0;fontSize=9;" vertex="1" parent="1">
          <mxGeometry x="691.2386058981233" y="469.80849582172704" width="118.76139410187668" height="19.306880222841226" as="geometry" />
        </mxCell>
        <mxCell id="E21WYbpWhwIhEI5-EvUI-182" value="" style="shape=cube;whiteSpace=wrap;html=1;boundedLbl=1;backgroundOutline=1;darkOpacity=0.05;darkOpacity2=0.1;size=7;direction=east;flipH=1;fillColor=#d0cee2;strokeColor=#56517e;container=0;" vertex="1" parent="1">
          <mxGeometry x="655.524128686327" y="497.20033426183846" width="25.81769436997319" height="16.16991643454039" as="geometry" />
        </mxCell>
        <mxCell id="E21WYbpWhwIhEI5-EvUI-183" value="scaled expected value" style="text;html=1;strokeColor=none;fillColor=none;align=left;verticalAlign=middle;whiteSpace=wrap;rounded=0;fontStyle=1;container=0;fontSize=9;" vertex="1" parent="1">
          <mxGeometry x="686.9356568364611" y="494.0633704735376" width="118.76139410187668" height="19.306880222841226" as="geometry" />
        </mxCell>
        <mxCell id="E21WYbpWhwIhEI5-EvUI-184" value="" style="endArrow=diamondThin;html=1;rounded=0;endFill=0;" edge="1" parent="1">
          <mxGeometry width="50" height="50" relative="1" as="geometry">
            <mxPoint x="659.3967828418231" y="530.4456824512534" as="sourcePoint" />
            <mxPoint x="671.4450402144772" y="530.4456824512534" as="targetPoint" />
          </mxGeometry>
        </mxCell>
        <mxCell id="E21WYbpWhwIhEI5-EvUI-185" value="absolute value difference&amp;nbsp;" style="text;html=1;strokeColor=none;fillColor=none;align=left;verticalAlign=middle;whiteSpace=wrap;rounded=0;fontStyle=1;container=0;fontSize=9;" vertex="1" parent="1">
          <mxGeometry x="688.656836461126" y="519.8867270194986" width="118.76139410187668" height="19.306880222841226" as="geometry" />
        </mxCell>
        <mxCell id="E21WYbpWhwIhEI5-EvUI-186" value="" style="endArrow=ERmandOne;html=1;rounded=0;endFill=0;" edge="1" parent="1">
          <mxGeometry width="50" height="50" relative="1" as="geometry">
            <mxPoint x="659.3923592493297" y="552.275069637883" as="sourcePoint" />
            <mxPoint x="671.440616621984" y="552.275069637883" as="targetPoint" />
          </mxGeometry>
        </mxCell>
        <mxCell id="E21WYbpWhwIhEI5-EvUI-187" value="dot product" style="text;html=1;strokeColor=none;fillColor=none;align=left;verticalAlign=middle;whiteSpace=wrap;rounded=0;fontStyle=1;container=0;fontSize=9;" vertex="1" parent="1">
          <mxGeometry x="691.2341823056299" y="542.5731197771588" width="118.76139410187668" height="19.306880222841226" as="geometry" />
        </mxCell>
        <mxCell id="E21WYbpWhwIhEI5-EvUI-189" value="&lt;b&gt;linear&lt;/b&gt;" style="text;html=1;strokeColor=none;fillColor=none;align=center;verticalAlign=middle;whiteSpace=wrap;rounded=0;container=0;" vertex="1" parent="1">
          <mxGeometry x="604" y="210" width="99" height="30" as="geometry" />
        </mxCell>
        <mxCell id="E21WYbpWhwIhEI5-EvUI-191" value="&lt;b&gt;linear&lt;/b&gt;" style="text;html=1;strokeColor=none;fillColor=none;align=center;verticalAlign=middle;whiteSpace=wrap;rounded=0;container=0;" vertex="1" parent="1">
          <mxGeometry x="694" y="283" width="99" height="30" as="geometry" />
        </mxCell>
        <mxCell id="E21WYbpWhwIhEI5-EvUI-192" value="&lt;b&gt;linear&lt;/b&gt;" style="text;html=1;strokeColor=none;fillColor=none;align=center;verticalAlign=middle;whiteSpace=wrap;rounded=0;container=0;" vertex="1" parent="1">
          <mxGeometry x="660" y="258.5" width="99" height="30" as="geometry" />
        </mxCell>
        <mxCell id="E21WYbpWhwIhEI5-EvUI-194" value="" style="endArrow=none;dashed=1;html=1;dashPattern=8 8;strokeWidth=1;rounded=0;entryX=0.311;entryY=0.999;entryDx=0;entryDy=0;exitX=0.5;exitY=0;exitDx=0;exitDy=0;entryPerimeter=0;" edge="1" parent="1" source="E21WYbpWhwIhEI5-EvUI-34" target="E21WYbpWhwIhEI5-EvUI-31">
          <mxGeometry width="50" height="50" relative="1" as="geometry">
            <mxPoint x="193" y="285" as="sourcePoint" />
            <mxPoint x="165" y="200" as="targetPoint" />
          </mxGeometry>
        </mxCell>
        <mxCell id="E21WYbpWhwIhEI5-EvUI-195" value="Training of cfDNABERT-2" style="text;html=1;strokeColor=none;fillColor=none;align=left;verticalAlign=middle;whiteSpace=wrap;rounded=0;fontStyle=1;container=0;" vertex="1" parent="1">
          <mxGeometry x="190.5" y="3" width="166" height="23.88" as="geometry" />
        </mxCell>
      </root>
    </mxGraphModel>
  </diagram>
</mxfile>
